<?xml version="1.0" standalone="no"?><!DOCTYPE svg PUBLIC "-//W3C//DTD SVG 1.1//EN" "http://www.w3.org/Graphics/SVG/1.1/DTD/svg11.dtd"><svg height="800" node-id="1" sillyvg="true" template-height="800" template-width="800" version="1.1" viewBox="0 0 800 800" width="800" xmlns="http://www.w3.org/2000/svg" xmlns:xlink="http://www.w3.org/1999/xlink"><defs node-id="16"></defs><g node-id="46"><g node-id="49"><path d="M 102.41 122.97 C 102.41 122.97 120.99 170.45 168.46 136.39 C 215.93 102.33 412.03 32.15 585.43 219.99 C 758.83 407.83 679.35 601.86 654.58 635.92 C 629.81 669.98 663.87 698.88 682.45 701.97 C 645.29 722.61 562.73 711.26 580.27 654.49 C 597.82 597.72 696.90 450.14 503.90 290.16 C 310.90 130.18 220.07 165.28 159.18 210.69 C 98.29 256.10 60.09 173.54 102.41 122.97 Z" fill="#ff7443" fill-rule="nonzero" group-id="1,4" node-id="24" stroke="none" target-height="690.45996" target-width="698.74" target-x="60.09" target-y="32.15"></path></g></g><g node-id="47"><g node-id="50"><path d="M 594.51 136.53 L 662.24 201.08 C 669.81 208.30 682.30 205.35 685.85 195.51 L 722.50 94.07 C 726.65 82.57 715.57 71.42 704.05 75.49 L 599.68 112.39 C 589.49 116.00 586.69 129.08 594.51 136.53 Z" fill="#f2b655" fill-rule="nonzero" group-id="2,5" node-id="32" stroke="none" target-height="136.88002" target-width="139.96008" target-x="586.69" target-y="71.42"></path></g></g><g node-id="48"><g node-id="51"><path d="M 139.22 643.12 C 149.21 641.54 157.71 650.43 155.67 660.34 L 143.82 717.98 C 143.36 720.21 145.73 721.96 147.72 720.86 L 236.97 671.84 C 241.78 669.20 244.69 664.06 244.47 658.57 L 241.21 576.36 C 240.92 568.99 235.13 563.01 227.77 562.49 L 146.67 556.68 C 141.40 556.30 136.33 558.83 133.47 563.27 L 78.20 648.89 C 76.94 650.84 78.60 653.36 80.89 652.97 L 139.22 643.12 Z" fill="#f2b655" fill-rule="nonzero" group-id="3,6" node-id="40" stroke="none" target-height="165.6601" target-width="167.75" target-x="76.94" target-y="556.3"></path></g></g><path d="M 653.88 209.86 C 658.90 214.64 665.45 217.21 672.20 217.21 C 674.24 217.21 676.30 216.97 678.34 216.49 C 687.12 214.42 694.20 208.12 697.26 199.63 L 733.90 98.19 C 737.43 88.42 735.08 77.77 727.75 70.40 C 720.43 63.03 709.80 60.59 700.00 64.06 L 595.62 100.96 C 586.83 104.07 580.42 111.36 578.47 120.48 C 576.52 129.60 579.38 138.88 586.13 145.31 L 612.18 170.14 L 582.32 199.23 C 402.93 17.57 205.43 94.94 161.39 126.53 C 149.53 135.04 139.35 138.15 131.15 135.79 C 119.58 132.45 113.83 118.86 113.67 118.48 C 112.09 114.52 108.56 111.68 104.36 111.00 C 100.12 110.31 95.86 111.90 93.11 115.19 C 63.34 150.76 68.38 197.58 90.12 220.57 C 99.24 230.21 113.00 237.03 129.65 235.69 L 224.57 550.10 L 147.55 544.58 C 137.90 543.87 128.57 548.53 123.30 556.69 L 68.03 642.30 C 64.85 647.23 64.87 653.57 68.10 658.47 C 71.32 663.37 77.13 665.89 82.93 664.92 L 141.15 655.09 C 142.15 654.92 142.80 655.39 143.19 655.80 C 143.58 656.21 144.00 656.90 143.79 657.90 L 131.94 715.54 C 130.78 721.17 133.03 727.02 137.65 730.43 C 140.24 732.34 143.33 733.31 146.44 733.31 C 148.89 733.31 151.34 732.71 153.56 731.49 L 242.82 682.46 C 251.71 677.57 256.99 668.23 256.59 658.08 L 253.43 578.00 L 565.77 670.15 C 565.99 684.56 572.09 697.14 583.79 706.63 C 598.46 718.53 619.33 723.74 639.79 723.74 C 657.83 723.74 675.55 719.68 688.35 712.57 C 692.86 710.07 695.29 704.99 694.41 699.91 C 693.53 694.83 689.54 690.86 684.45 690.01 C 677.42 688.84 664.59 680.67 659.80 668.97 C 656.35 660.53 657.85 652.05 664.40 643.05 C 692.83 603.96 769.35 406.47 598.98 216.89 L 629.78 186.89 L 653.88 209.86 Z M 579.17 623.40 C 575.68 631.91 572.61 639.44 570.26 646.19 L 263.37 555.65 L 504.69 306.76 C 655.40 437.52 605.97 558.08 579.17 623.40 Z M 246.36 538.36 L 152.91 228.82 C 157.31 226.60 161.81 223.86 166.42 220.42 C 226.27 175.79 311.03 149.78 486.00 291.20 L 246.36 538.36 Z M 231.14 661.21 L 159.81 700.39 L 167.54 662.79 C 169.30 654.24 166.75 645.37 160.72 639.06 C 155.66 633.76 148.68 630.83 141.47 630.83 C 140.09 630.83 138.70 630.94 137.32 631.16 C 137.28 631.16 137.23 631.17 137.19 631.18 L 100.03 637.46 L 143.66 569.86 C 144.13 569.13 144.95 568.73 145.81 568.78 L 226.91 574.59 C 228.11 574.68 229.05 575.65 229.10 576.85 L 232.36 659.06 C 232.40 659.95 231.93 660.78 231.14 661.21 Z M 644.77 628.78 C 633.37 644.46 630.72 662.00 637.34 678.15 C 640.61 686.16 645.82 693.10 651.84 698.71 C 633.10 701.05 611.64 698.00 599.06 687.79 C 590.24 680.63 587.88 670.91 591.85 658.06 C 593.97 651.22 597.51 642.59 601.61 632.59 C 629.15 565.45 686.46 425.74 511.62 280.82 C 402.32 190.22 324.02 160.06 264.23 160.06 C 217.46 160.06 182.00 178.53 151.91 200.96 C 134.15 214.20 118.46 215.24 107.73 203.89 C 95.78 191.25 92.30 166.94 102.54 145.09 C 107.73 150.75 114.83 156.25 124.13 159.00 C 139.92 163.67 157.20 159.37 175.52 146.23 C 216.86 116.57 406.08 43.57 576.51 228.20 C 741.85 407.32 671.13 592.54 644.77 628.78 Z M 602.20 125.55 C 602.38 124.69 602.89 124.11 603.72 123.82 L 708.10 86.92 C 709.04 86.60 709.86 86.78 710.56 87.48 C 711.25 88.18 711.44 89.01 711.10 89.94 L 674.45 191.40 C 674.09 192.39 673.34 192.76 672.77 192.90 C 672.21 193.03 671.36 193.04 670.60 192.31 L 641.31 164.39 C 640.75 163.15 640.01 161.98 639.01 160.95 C 637.77 159.68 636.31 158.76 634.76 158.15 L 602.87 127.76 C 602.24 127.15 602.01 126.41 602.20 125.55 Z" fill="#333b44" fill-rule="nonzero" node-id="44" stroke="none" target-height="715.74" target-width="706.00995" target-x="63.34" target-y="17.57"></path></svg>